<?xml version="1.0" encoding="UTF-8" standalone="no"?>
<!DOCTYPE svg PUBLIC "-//W3C//DTD SVG 1.1//EN"
 "http://www.w3.org/Graphics/SVG/1.1/DTD/svg11.dtd">
<!-- Generated by graphviz version 2.43.0 (0)
 -->
<!-- Title: System Pages: 1 -->
<svg width="1803pt" height="1446pt"
 viewBox="0.00 0.00 1803.40 1446.40" xmlns="http://www.w3.org/2000/svg" xmlns:xlink="http://www.w3.org/1999/xlink">
<g id="graph0" class="graph" transform="scale(1 1) rotate(0) translate(25.2 1421.2)">
<title>System</title>
<polygon fill="#ffffff" stroke="transparent" points="-25.2,25.2 -25.2,-1421.2 1778.2,-1421.2 1778.2,25.2 -25.2,25.2"/>
<text text-anchor="middle" x="876.5" y="-1376" font-family="DejaVu Sans" font-size="20.00">SoulX&#45;FlashHead | Repository system architecture</text>
<text text-anchor="middle" x="876.5" y="-1354" font-family="DejaVu Sans" font-size="20.00">Local source audit · 17 September 2026 · no new inference benchmark</text>
<g id="clust1" class="cluster">
<title>cluster_entries</title>
<polygon fill="#ffffff" stroke="#c7d6e6" points="433,-1035 433,-1138 916,-1138 916,-1035 433,-1035"/>
<text text-anchor="middle" x="674.5" y="-1118" font-family="DejaVu Sans" font-size="20.00">Application entry points</text>
</g>
<g id="clust2" class="cluster">
<title>cluster_parent</title>
<polygon fill="#ffffff" stroke="#6485aa" points="8,-504.5 8,-987 704,-987 704,-504.5 8,-504.5"/>
<text text-anchor="middle" x="356" y="-967" font-family="DejaVu Sans" font-size="20.00">REAL&#45;TIME SERVICE | CPU parent process</text>
</g>
<g id="clust3" class="cluster">
<title>cluster_worker</title>
<polygon fill="#ffffff" stroke="#548876" points="712,-369 712,-736.5 1259,-736.5 1259,-369 712,-369"/>
<text text-anchor="middle" x="985.5" y="-716.5" font-family="DejaVu Sans" font-size="20.00">ONE GPU WORKER PROCESS | worker.py + engine.py</text>
</g>
<g id="clust4" class="cluster">
<title>cluster_offline</title>
<polygon fill="#ffffff" stroke="#c7d6e6" points="739,-778 739,-993.5 1047,-993.5 1047,-778 739,-778"/>
<text text-anchor="middle" x="893" y="-973.5" font-family="DejaVu Sans" font-size="20.00">OFFLINE MODEL PATH</text>
</g>
<!-- input -->
<g id="node1" class="node">
<title>input</title>
<path fill="#edf4fb" stroke="#6384a6" d="M819,-1215C819,-1215 507,-1215 507,-1215 501,-1215 495,-1209 495,-1203 495,-1203 495,-1183 495,-1183 495,-1177 501,-1171 507,-1171 507,-1171 819,-1171 819,-1171 825,-1171 831,-1177 831,-1183 831,-1183 831,-1203 831,-1203 831,-1209 825,-1215 819,-1215"/>
<text text-anchor="middle" x="663" y="-1196.4" font-family="DejaVu Sans" font-size="12.00">INPUTS</text>
<text text-anchor="middle" x="663" y="-1183.4" font-family="DejaVu Sans" font-size="12.00">Portrait / approved avatar bank + speech waveform</text>
</g>
<!-- browser -->
<g id="node3" class="node">
<title>browser</title>
<path fill="#edf4fb" stroke="#6384a6" d="M629,-1100C629,-1100 453,-1100 453,-1100 447,-1100 441,-1094 441,-1088 441,-1088 441,-1055 441,-1055 441,-1049 447,-1043 453,-1043 453,-1043 629,-1043 629,-1043 635,-1043 641,-1049 641,-1055 641,-1055 641,-1088 641,-1088 641,-1094 635,-1100 629,-1100"/>
<text text-anchor="middle" x="541" y="-1081.4" font-family="DejaVu Sans" font-size="12.00">Browser / API client</text>
<text text-anchor="middle" x="541" y="-1068.4" font-family="DejaVu Sans" font-size="12.00">wall.html · wall.js · index.html</text>
<text text-anchor="middle" x="541" y="-1055.4" font-family="DejaVu Sans" font-size="12.00">Persistent WebRTC calls</text>
</g>
<!-- input&#45;&gt;browser -->
<g id="edge2" class="edge">
<title>input&#45;&gt;browser</title>
<path fill="none" stroke="#56718b" d="M641.47,-1170.91C623.01,-1152.83 596.09,-1126.46 574.77,-1105.58"/>
<polygon fill="#56718b" stroke="#56718b" points="576.39,-1103.49 569.19,-1100.12 572.72,-1107.24 576.39,-1103.49"/>
</g>
<!-- offline -->
<g id="node4" class="node">
<title>offline</title>
<path fill="#edf4fb" stroke="#6384a6" d="M895.5,-1100C895.5,-1100 678.5,-1100 678.5,-1100 672.5,-1100 666.5,-1094 666.5,-1088 666.5,-1088 666.5,-1055 666.5,-1055 666.5,-1049 672.5,-1043 678.5,-1043 678.5,-1043 895.5,-1043 895.5,-1043 901.5,-1043 907.5,-1049 907.5,-1055 907.5,-1055 907.5,-1088 907.5,-1088 907.5,-1094 901.5,-1100 895.5,-1100"/>
<text text-anchor="middle" x="787" y="-1081.4" font-family="DejaVu Sans" font-size="12.00">Offline CLI / Gradio demos</text>
<text text-anchor="middle" x="787" y="-1068.4" font-family="DejaVu Sans" font-size="12.00">generate_video.py · gradio_app*.py</text>
<text text-anchor="middle" x="787" y="-1055.4" font-family="DejaVu Sans" font-size="12.00">LITE or PRO · MP4 / segmented MP4</text>
</g>
<!-- input&#45;&gt;offline -->
<g id="edge3" class="edge">
<title>input&#45;&gt;offline</title>
<path fill="none" stroke="#56718b" d="M684.88,-1170.91C703.65,-1152.83 731,-1126.46 752.68,-1105.58"/>
<polygon fill="#56718b" stroke="#56718b" points="754.76,-1107.21 758.34,-1100.12 751.12,-1103.43 754.76,-1107.21"/>
</g>
<!-- tts -->
<g id="node2" class="node">
<title>tts</title>
<path fill="#f1ebfb" stroke="#9271bd" d="M792,-1344C792,-1344 534,-1344 534,-1344 528,-1344 522,-1338 522,-1332 522,-1332 522,-1286 522,-1286 522,-1280 528,-1274 534,-1274 534,-1274 792,-1274 792,-1274 798,-1274 804,-1280 804,-1286 804,-1286 804,-1332 804,-1332 804,-1338 798,-1344 792,-1344"/>
<text text-anchor="middle" x="663" y="-1325.4" font-family="DejaVu Sans" font-size="12.00">OPTIONAL SPEECH CREATION</text>
<text text-anchor="middle" x="663" y="-1312.4" font-family="DejaVu Sans" font-size="12.00">CPU Kokoro endpoint in this fork</text>
<text text-anchor="middle" x="663" y="-1299.4" font-family="DejaVu Sans" font-size="12.00">or external TTS / prerecorded speech</text>
<text text-anchor="middle" x="663" y="-1286.4" font-family="DejaVu Sans" font-size="12.00">Independent weights; not part of SoulX DiT</text>
</g>
<!-- tts&#45;&gt;input -->
<g id="edge1" class="edge">
<title>tts&#45;&gt;input</title>
<path fill="none" stroke="#56718b" d="M663,-1273.8C663,-1257.6 663,-1238.46 663,-1222.99"/>
<polygon fill="#56718b" stroke="#56718b" points="665.63,-1222.77 663,-1215.27 660.38,-1222.77 665.63,-1222.77"/>
<text text-anchor="middle" x="677" y="-1242" font-family="DejaVu Sans" font-size="10.00">audio</text>
</g>
<!-- api -->
<g id="node5" class="node">
<title>api</title>
<path fill="#edf4fb" stroke="#6384a6" d="M673,-949C673,-949 409,-949 409,-949 403,-949 397,-943 397,-937 397,-937 397,-904 397,-904 397,-898 403,-892 409,-892 409,-892 673,-892 673,-892 679,-892 685,-898 685,-904 685,-904 685,-937 685,-937 685,-943 679,-949 673,-949"/>
<text text-anchor="middle" x="541" y="-930.4" font-family="DejaVu Sans" font-size="12.00">HTTP API + signaling + optional bearer auth</text>
<text text-anchor="middle" x="541" y="-917.4" font-family="DejaVu Sans" font-size="12.00">server.py · calls.py</text>
<text text-anchor="middle" x="541" y="-904.4" font-family="DejaVu Sans" font-size="12.00">/calls, /sessions, /avatars, /health, /config</text>
</g>
<!-- browser&#45;&gt;api -->
<g id="edge9" class="edge">
<title>browser&#45;&gt;api</title>
<path fill="none" stroke="#56718b" d="M541,-1042.82C541,-1018.47 541,-982.88 541,-956.54"/>
<polygon fill="#56718b" stroke="#56718b" points="543.63,-956.53 541,-949.03 538.38,-956.53 543.63,-956.53"/>
<text text-anchor="middle" x="624.5" y="-1004.5" font-family="DejaVu Sans" font-size="10.00">select avatar, submit speech, SDP</text>
</g>
<!-- pipeline -->
<g id="node16" class="node">
<title>pipeline</title>
<path fill="#edf4fb" stroke="#6384a6" d="M1027,-955.5C1027,-955.5 759,-955.5 759,-955.5 753,-955.5 747,-949.5 747,-943.5 747,-943.5 747,-897.5 747,-897.5 747,-891.5 753,-885.5 759,-885.5 759,-885.5 1027,-885.5 1027,-885.5 1033,-885.5 1039,-891.5 1039,-897.5 1039,-897.5 1039,-943.5 1039,-943.5 1039,-949.5 1033,-955.5 1027,-955.5"/>
<text text-anchor="middle" x="893" y="-936.9" font-family="DejaVu Sans" font-size="12.00">flash_head/inference.py → FlashHeadPipeline</text>
<text text-anchor="middle" x="893" y="-923.9" font-family="DejaVu Sans" font-size="12.00">LITE: Model_Lite + VAE_LTX</text>
<text text-anchor="middle" x="893" y="-910.9" font-family="DejaVu Sans" font-size="12.00">PRO: Model_Pro + VAE_Wan</text>
<text text-anchor="middle" x="893" y="-897.9" font-family="DejaVu Sans" font-size="12.00">Shared audio&#45;conditioning design</text>
</g>
<!-- offline&#45;&gt;pipeline -->
<g id="edge20" class="edge">
<title>offline&#45;&gt;pipeline</title>
<path fill="none" stroke="#56718b" d="M806.69,-1042.82C822.86,-1020.09 845.99,-987.58 864.24,-961.93"/>
<polygon fill="#56718b" stroke="#56718b" points="866.56,-963.2 868.76,-955.57 862.28,-960.16 866.56,-963.2"/>
</g>
<!-- avatar -->
<g id="node6" class="node">
<title>avatar</title>
<path fill="#edf4fb" stroke="#6384a6" d="M681.5,-836.5C681.5,-836.5 408.5,-836.5 408.5,-836.5 402.5,-836.5 396.5,-830.5 396.5,-824.5 396.5,-824.5 396.5,-791.5 396.5,-791.5 396.5,-785.5 402.5,-779.5 408.5,-779.5 408.5,-779.5 681.5,-779.5 681.5,-779.5 687.5,-779.5 693.5,-785.5 693.5,-791.5 693.5,-791.5 693.5,-824.5 693.5,-824.5 693.5,-830.5 687.5,-836.5 681.5,-836.5"/>
<text text-anchor="middle" x="545" y="-817.9" font-family="DejaVu Sans" font-size="12.00">Approved avatar selection + reference frame</text>
<text text-anchor="middle" x="545" y="-804.9" font-family="DejaVu Sans" font-size="12.00">avatars.py · idle_cache.py</text>
<text text-anchor="middle" x="545" y="-791.9" font-family="DejaVu Sans" font-size="12.00">Still image or first frame of idle video</text>
</g>
<!-- api&#45;&gt;avatar -->
<g id="edge4" class="edge">
<title>api&#45;&gt;avatar</title>
<path fill="none" stroke="#56718b" d="M542,-891.9C542.52,-877.53 543.16,-859.8 543.72,-844.42"/>
<polygon fill="#56718b" stroke="#56718b" points="546.35,-844.22 544,-836.63 541.11,-844.03 546.35,-844.22"/>
</g>
<!-- audio -->
<g id="node7" class="node">
<title>audio</title>
<path fill="#edf4fb" stroke="#6384a6" d="M359,-836.5C359,-836.5 125,-836.5 125,-836.5 119,-836.5 113,-830.5 113,-824.5 113,-824.5 113,-791.5 113,-791.5 113,-785.5 119,-779.5 125,-779.5 125,-779.5 359,-779.5 359,-779.5 365,-779.5 371,-785.5 371,-791.5 371,-791.5 371,-824.5 371,-824.5 371,-830.5 365,-836.5 359,-836.5"/>
<text text-anchor="middle" x="242" y="-817.9" font-family="DejaVu Sans" font-size="12.00">Audio decode / resample</text>
<text text-anchor="middle" x="242" y="-804.9" font-family="DejaVu Sans" font-size="12.00">16&#45;kHz conditioning + 48&#45;kHz playback</text>
<text text-anchor="middle" x="242" y="-791.9" font-family="DejaVu Sans" font-size="12.00">Turn queues, cancellation and epochs</text>
</g>
<!-- api&#45;&gt;audio -->
<g id="edge5" class="edge">
<title>api&#45;&gt;audio</title>
<path fill="none" stroke="#56718b" d="M466.32,-891.9C422.89,-875.85 368.12,-855.61 323.56,-839.14"/>
<polygon fill="#56718b" stroke="#56718b" points="324.45,-836.67 316.5,-836.53 322.63,-841.6 324.45,-836.67"/>
</g>
<!-- media -->
<g id="node9" class="node">
<title>media</title>
<path fill="#edf4fb" stroke="#6384a6" d="M427,-705C427,-705 193,-705 193,-705 187,-705 181,-699 181,-693 181,-693 181,-647 181,-647 181,-641 187,-635 193,-635 193,-635 427,-635 427,-635 433,-635 439,-641 439,-647 439,-647 439,-693 439,-693 439,-699 433,-705 427,-705"/>
<text text-anchor="middle" x="310" y="-686.4" font-family="DejaVu Sans" font-size="12.00">Persistent media tracks</text>
<text text-anchor="middle" x="310" y="-673.4" font-family="DejaVu Sans" font-size="12.00">calls.py · boundaries.py</text>
<text text-anchor="middle" x="310" y="-660.4" font-family="DejaVu Sans" font-size="12.00">A/V clocks, idle/speech transitions</text>
<text text-anchor="middle" x="310" y="-647.4" font-family="DejaVu Sans" font-size="12.00">Source replay / held frame / neural idle</text>
</g>
<!-- avatar&#45;&gt;media -->
<g id="edge16" class="edge">
<title>avatar&#45;&gt;media</title>
<path fill="none" stroke="#56718b" stroke-dasharray="5,2" d="M497.44,-779.48C462.45,-759.23 414.45,-731.45 375.78,-709.07"/>
<polygon fill="#56718b" stroke="#56718b" points="376.97,-706.73 369.17,-705.24 374.34,-711.27 376.97,-706.73"/>
<text text-anchor="middle" x="500.5" y="-747.5" font-family="DejaVu Sans" font-size="10.00">cached source idle</text>
</g>
<!-- prepare -->
<g id="node12" class="node">
<title>prepare</title>
<path fill="#e8f3ee" stroke="#6384a6" d="M1057,-698.5C1057,-698.5 733,-698.5 733,-698.5 727,-698.5 721,-692.5 721,-686.5 721,-686.5 721,-653.5 721,-653.5 721,-647.5 727,-641.5 733,-641.5 733,-641.5 1057,-641.5 1057,-641.5 1063,-641.5 1069,-647.5 1069,-653.5 1069,-653.5 1069,-686.5 1069,-686.5 1069,-692.5 1063,-698.5 1057,-698.5"/>
<text text-anchor="middle" x="895" y="-679.9" font-family="DejaVu Sans" font-size="12.00">Prepare/cache avatar conditioning</text>
<text text-anchor="middle" x="895" y="-666.9" font-family="DejaVu Sans" font-size="12.00">Shared reference template</text>
<text text-anchor="middle" x="895" y="-653.9" font-family="DejaVu Sans" font-size="12.00">Private seed/RNG, audio buffer, cursor, motion history</text>
</g>
<!-- avatar&#45;&gt;prepare -->
<g id="edge12" class="edge">
<title>avatar&#45;&gt;prepare</title>
<path fill="none" stroke="#56718b" d="M615.83,-779.48C674.08,-756.84 756.55,-724.8 816.75,-701.41"/>
<polygon fill="#56718b" stroke="#56718b" points="817.94,-703.76 823.98,-698.6 816.04,-698.87 817.94,-703.76"/>
<text text-anchor="middle" x="752.5" y="-747.5" font-family="DejaVu Sans" font-size="10.00">reference + seed RPC</text>
</g>
<!-- schedule -->
<g id="node8" class="node">
<title>schedule</title>
<path fill="#edf4fb" stroke="#6384a6" d="M684,-698.5C684,-698.5 476,-698.5 476,-698.5 470,-698.5 464,-692.5 464,-686.5 464,-686.5 464,-653.5 464,-653.5 464,-647.5 470,-641.5 476,-641.5 476,-641.5 684,-641.5 684,-641.5 690,-641.5 696,-647.5 696,-653.5 696,-653.5 696,-686.5 696,-686.5 696,-692.5 690,-698.5 684,-698.5"/>
<text text-anchor="middle" x="580" y="-679.9" font-family="DejaVu Sans" font-size="12.00">Fair scheduling + admission limits</text>
<text text-anchor="middle" x="580" y="-666.9" font-family="DejaVu Sans" font-size="12.00">Bounded generated&#45;frame queues</text>
<text text-anchor="middle" x="580" y="-653.9" font-family="DejaVu Sans" font-size="12.00">Batch compatible active sessions</text>
</g>
<!-- audio&#45;&gt;schedule -->
<g id="edge6" class="edge">
<title>audio&#45;&gt;schedule</title>
<path fill="none" stroke="#56718b" d="M333.8,-779.46C370.96,-767.47 413.98,-752.5 452,-736.5 475.98,-726.41 501.65,-713.68 523.66,-702.13"/>
<polygon fill="#56718b" stroke="#56718b" points="524.96,-704.41 530.36,-698.59 522.5,-699.77 524.96,-704.41"/>
</g>
<!-- transport -->
<g id="node10" class="node">
<title>transport</title>
<path fill="#edf4fb" stroke="#6384a6" d="M281.5,-569.5C281.5,-569.5 28.5,-569.5 28.5,-569.5 22.5,-569.5 16.5,-563.5 16.5,-557.5 16.5,-557.5 16.5,-524.5 16.5,-524.5 16.5,-518.5 22.5,-512.5 28.5,-512.5 28.5,-512.5 281.5,-512.5 281.5,-512.5 287.5,-512.5 293.5,-518.5 293.5,-524.5 293.5,-524.5 293.5,-557.5 293.5,-557.5 293.5,-563.5 287.5,-569.5 281.5,-569.5"/>
<text text-anchor="middle" x="155" y="-550.9" font-family="DejaVu Sans" font-size="12.00">H264 video + Opus audio → RTP/WebRTC</text>
<text text-anchor="middle" x="155" y="-537.9" font-family="DejaVu Sans" font-size="12.00">codec.py · aiortc</text>
<text text-anchor="middle" x="155" y="-524.9" font-family="DejaVu Sans" font-size="12.00">Encode and transmit at playback cadence</text>
</g>
<!-- audio&#45;&gt;transport -->
<g id="edge17" class="edge">
<title>audio&#45;&gt;transport</title>
<path fill="none" stroke="#56718b" stroke-dasharray="5,2" d="M112.88,-782.28C89.71,-771.93 68.39,-757.27 54,-736.5 28.3,-699.42 35.88,-676.31 54,-635 64.63,-610.77 85.03,-590.06 104.73,-574.38"/>
<polygon fill="#56718b" stroke="#56718b" points="106.49,-576.34 110.81,-569.68 103.28,-572.19 106.49,-576.34"/>
<text text-anchor="middle" x="111.5" y="-667.5" font-family="DejaVu Sans" font-size="10.00">original audio playback</text>
</g>
<!-- engine -->
<g id="node13" class="node">
<title>engine</title>
<path fill="#dceee4" stroke="#548876" stroke-width="2" d="M1092,-576C1092,-576 814,-576 814,-576 808,-576 802,-570 802,-564 802,-564 802,-518 802,-518 802,-512 808,-506 814,-506 814,-506 1092,-506 1092,-506 1098,-506 1104,-512 1104,-518 1104,-518 1104,-564 1104,-564 1104,-570 1098,-576 1092,-576"/>
<text text-anchor="middle" x="953" y="-557.4" font-family="DejaVu Sans" font-size="12.00">Shared LITE inference engine</text>
<text text-anchor="middle" x="953" y="-544.4" font-family="DejaVu Sans" font-size="12.00">Wav2Vec2 → audio adapter → 4&#45;step DiT</text>
<text text-anchor="middle" x="953" y="-531.4" font-family="DejaVu Sans" font-size="12.00">LTX VAE → color correction → motion feedback</text>
<text text-anchor="middle" x="953" y="-518.4" font-family="DejaVu Sans" font-size="12.00">24 useful RGB frames per chunk</text>
</g>
<!-- schedule&#45;&gt;engine -->
<g id="edge13" class="edge">
<title>schedule&#45;&gt;engine</title>
<path fill="none" stroke="#56718b" d="M640.42,-641.4C671.08,-627.96 709.13,-612.12 744,-600 766.07,-592.33 789.71,-584.97 812.87,-578.23"/>
<polygon fill="#56718b" stroke="#56718b" points="813.9,-580.66 820.37,-576.06 812.44,-575.62 813.9,-580.66"/>
<text text-anchor="middle" x="830" y="-603" font-family="DejaVu Sans" font-size="10.00">append audio / generate batch RPC</text>
</g>
<!-- media&#45;&gt;transport -->
<g id="edge7" class="edge">
<title>media&#45;&gt;transport</title>
<path fill="none" stroke="#56718b" d="M268.46,-634.97C245.58,-616.22 217.32,-593.06 194.73,-574.55"/>
<polygon fill="#56718b" stroke="#56718b" points="196.28,-572.43 188.81,-569.71 192.95,-576.49 196.28,-572.43"/>
</g>
<!-- history -->
<g id="node11" class="node">
<title>history</title>
<path fill="#e8f3ee" stroke="#548876" d="M565.5,-569.5C565.5,-569.5 330.5,-569.5 330.5,-569.5 324.5,-569.5 318.5,-563.5 318.5,-557.5 318.5,-557.5 318.5,-524.5 318.5,-524.5 318.5,-518.5 324.5,-512.5 330.5,-512.5 330.5,-512.5 565.5,-512.5 565.5,-512.5 571.5,-512.5 577.5,-518.5 577.5,-524.5 577.5,-524.5 577.5,-557.5 577.5,-557.5 577.5,-563.5 571.5,-569.5 565.5,-569.5"/>
<text text-anchor="middle" x="448" y="-550.9" font-family="DejaVu Sans" font-size="12.00">Last 9 sent native frames</text>
<text text-anchor="middle" x="448" y="-537.9" font-family="DejaVu Sans" font-size="12.00">Recondition on interruption / idle return</text>
<text text-anchor="middle" x="448" y="-524.9" font-family="DejaVu Sans" font-size="12.00">Separate from queued future frames</text>
</g>
<!-- media&#45;&gt;history -->
<g id="edge8" class="edge">
<title>media&#45;&gt;history</title>
<path fill="none" stroke="#56718b" d="M346.98,-634.97C367.27,-616.3 392.3,-593.26 412.37,-574.79"/>
<polygon fill="#56718b" stroke="#56718b" points="414.15,-576.72 417.89,-569.71 410.6,-572.85 414.15,-576.72"/>
<text text-anchor="middle" x="426.5" y="-603" font-family="DejaVu Sans" font-size="10.00">track sent frames</text>
</g>
<!-- receiver -->
<g id="node15" class="node">
<title>receiver</title>
<path fill="#dceee4" stroke="#548876" d="M583,-434C583,-434 345,-434 345,-434 339,-434 333,-428 333,-422 333,-422 333,-389 333,-389 333,-383 339,-377 345,-377 345,-377 583,-377 583,-377 589,-377 595,-383 595,-389 595,-389 595,-422 595,-422 595,-428 589,-434 583,-434"/>
<text text-anchor="middle" x="464" y="-415.4" font-family="DejaVu Sans" font-size="12.00">Receiver playback / MP4 recording</text>
<text text-anchor="middle" x="464" y="-402.4" font-family="DejaVu Sans" font-size="12.00">Audio remains the supplied waveform</text>
<text text-anchor="middle" x="464" y="-389.4" font-family="DejaVu Sans" font-size="12.00">Video contains SoulX&#45;generated motion</text>
</g>
<!-- transport&#45;&gt;receiver -->
<g id="edge18" class="edge">
<title>transport&#45;&gt;receiver</title>
<path fill="none" stroke="#56718b" d="M219.02,-512.34C269.86,-490.37 340.88,-459.69 393.37,-437.02"/>
<polygon fill="#56718b" stroke="#56718b" points="394.48,-439.4 400.32,-434.01 392.4,-434.58 394.48,-439.4"/>
<text text-anchor="middle" x="329" y="-474" font-family="DejaVu Sans" font-size="10.00">network</text>
</g>
<!-- history&#45;&gt;prepare -->
<g id="edge14" class="edge">
<title>history&#45;&gt;prepare</title>
<path fill="none" stroke="#56718b" stroke-dasharray="5,2" d="M560.34,-569.52C572.66,-571.98 585.06,-574.21 597,-576 632.81,-581.38 897.36,-573.47 922,-600 930.94,-609.62 928.45,-622.54 922.23,-634.6"/>
<polygon fill="#56718b" stroke="#56718b" points="919.91,-633.38 918.44,-641.19 924.46,-636 919.91,-633.38"/>
<text text-anchor="middle" x="966" y="-603" font-family="DejaVu Sans" font-size="10.00">recondition RPC</text>
</g>
<!-- prepare&#45;&gt;engine -->
<g id="edge10" class="edge">
<title>prepare&#45;&gt;engine</title>
<path fill="none" stroke="#56718b" d="M907.59,-641.44C915.36,-624.42 925.48,-602.26 934.19,-583.18"/>
<polygon fill="#56718b" stroke="#56718b" points="936.61,-584.22 937.33,-576.3 931.83,-582.03 936.61,-584.22"/>
</g>
<!-- ipc -->
<g id="node14" class="node">
<title>ipc</title>
<path fill="#e8f3ee" stroke="#6384a6" d="M961,-434C961,-434 735,-434 735,-434 729,-434 723,-428 723,-422 723,-422 723,-389 723,-389 723,-383 729,-377 735,-377 735,-377 961,-377 961,-377 967,-377 973,-383 973,-389 973,-389 973,-422 973,-422 973,-428 967,-434 961,-434"/>
<text text-anchor="middle" x="848" y="-415.4" font-family="DejaVu Sans" font-size="12.00">uint8 RGB chunks + telemetry</text>
<text text-anchor="middle" x="848" y="-402.4" font-family="DejaVu Sans" font-size="12.00">shared_chunks.py</text>
<text text-anchor="middle" x="848" y="-389.4" font-family="DejaVu Sans" font-size="12.00">Shared&#45;memory IPC or pickle fallback</text>
</g>
<!-- engine&#45;&gt;ipc -->
<g id="edge11" class="edge">
<title>engine&#45;&gt;ipc</title>
<path fill="none" stroke="#56718b" d="M926.23,-505.97C910.37,-485.8 890.35,-460.35 874.54,-440.24"/>
<polygon fill="#56718b" stroke="#56718b" points="876.47,-438.45 869.77,-434.18 872.35,-441.7 876.47,-438.45"/>
</g>
<!-- tools -->
<g id="node21" class="node">
<title>tools</title>
<path fill="#f2f4f7" stroke="#939ca8" d="M1741,-447C1741,-447 1279,-447 1279,-447 1273,-447 1267,-441 1267,-435 1267,-435 1267,-376 1267,-376 1267,-370 1273,-364 1279,-364 1279,-364 1741,-364 1741,-364 1747,-364 1753,-370 1753,-376 1753,-376 1753,-435 1753,-435 1753,-441 1747,-447 1741,-447"/>
<text text-anchor="middle" x="1510" y="-428.4" font-family="DejaVu Sans" font-size="12.00">CROSS&#45;CUTTING CODE</text>
<text text-anchor="middle" x="1510" y="-415.4" font-family="DejaVu Sans" font-size="12.00">gpu_lease.py: cooperative GPU ownership</text>
<text text-anchor="middle" x="1510" y="-402.4" font-family="DejaVu Sans" font-size="12.00">compact_weights.py / graph.py / trt_backend.py: optional execution choices</text>
<text text-anchor="middle" x="1510" y="-389.4" font-family="DejaVu Sans" font-size="12.00">metrics.py + benchmarks/ + tests/: timing, resources, parity, receiver checks</text>
<text text-anchor="middle" x="1510" y="-376.4" font-family="DejaVu Sans" font-size="12.00">These options do not themselves learn better teeth</text>
</g>
<!-- engine&#45;&gt;tools -->
<g id="edge25" class="edge">
<title>engine&#45;&gt;tools</title>
<path fill="none" stroke="#56718b" stroke-dasharray="1,5" d="M1095,-505.97C1169.93,-488.01 1262.39,-465.85 1341,-447"/>
</g>
<!-- ipc&#45;&gt;media -->
<g id="edge15" class="edge">
<title>ipc&#45;&gt;media</title>
<path fill="none" stroke="#56718b" d="M766.05,-434.06C725.56,-450.34 677.67,-473.82 641,-504.5 611.06,-529.55 621.4,-552.82 590,-576 565.65,-593.98 504.09,-615.18 444.88,-632.8"/>
<polygon fill="#56718b" stroke="#56718b" points="444.13,-630.28 437.68,-634.93 445.61,-635.32 444.13,-630.28"/>
<text text-anchor="middle" x="715.5" y="-538.5" font-family="DejaVu Sans" font-size="10.00">native frames + epoch checks</text>
</g>
<!-- experiments -->
<g id="node19" class="node">
<title>experiments</title>
<path fill="#f1ebfb" stroke="#9271bd" stroke-dasharray="5,2" d="M991,-305C991,-305 705,-305 705,-305 699,-305 693,-299 693,-293 693,-293 693,-247 693,-247 693,-241 699,-235 705,-235 705,-235 991,-235 991,-235 997,-235 1003,-241 1003,-247 1003,-247 1003,-293 1003,-293 1003,-299 997,-305 991,-305"/>
<text text-anchor="middle" x="848" y="-286.4" font-family="DejaVu Sans" font-size="12.00">EXPERIMENTAL ENHANCEMENT UTILITIES</text>
<text text-anchor="middle" x="848" y="-273.4" font-family="DejaVu Sans" font-size="12.00">face_landmarker.py · mouth_sr.py · srvgg_trt.py</text>
<text text-anchor="middle" x="848" y="-260.4" font-family="DejaVu Sans" font-size="12.00">Tested in benchmark runners</text>
<text text-anchor="middle" x="848" y="-247.4" font-family="DejaVu Sans" font-size="12.00">Not wired into default RTC generation</text>
</g>
<!-- ipc&#45;&gt;experiments -->
<g id="edge23" class="edge">
<title>ipc&#45;&gt;experiments</title>
<path fill="none" stroke="#56718b" stroke-dasharray="5,2" d="M848,-376.84C848,-358.34 848,-333.65 848,-312.77"/>
<polygon fill="#56718b" stroke="#56718b" points="850.63,-312.77 848,-305.27 845.38,-312.77 850.63,-312.77"/>
<text text-anchor="middle" x="922.5" y="-332" font-family="DejaVu Sans" font-size="10.00">alternative experiment branch</text>
</g>
<!-- legend -->
<g id="node22" class="node">
<title>legend</title>
<polygon fill="#fffaf0" stroke="#c7bfae" points="1100,-57 590,-57 590,0 1106,0 1106,-51 1100,-57"/>
<polyline fill="none" stroke="#c7bfae" points="1100,-57 1100,-51 "/>
<polyline fill="none" stroke="#c7bfae" points="1106,-51 1100,-51 "/>
<text text-anchor="middle" x="848" y="-38.4" font-family="DejaVu Sans" font-size="12.00">Blue/green: implemented paths &#160;| &#160;Purple dashed: experimental branch</text>
<text text-anchor="middle" x="848" y="-25.4" font-family="DejaVu Sans" font-size="12.00">Orange dashed: proposed, untrained &#160;| &#160;Dotted: loading / supporting infrastructure</text>
<text text-anchor="middle" x="848" y="-12.4" font-family="DejaVu Sans" font-size="12.00">Source map covers the local modified checkout, not Ojin&#39;s private service</text>
</g>
<!-- receiver&#45;&gt;legend -->
<!-- mp4 -->
<g id="node17" class="node">
<title>mp4</title>
<path fill="#edf4fb" stroke="#6384a6" d="M1003,-830C1003,-830 783,-830 783,-830 777,-830 771,-824 771,-818 771,-818 771,-798 771,-798 771,-792 777,-786 783,-786 783,-786 1003,-786 1003,-786 1009,-786 1015,-792 1015,-798 1015,-798 1015,-818 1015,-818 1015,-824 1009,-830 1003,-830"/>
<text text-anchor="middle" x="893" y="-811.4" font-family="DejaVu Sans" font-size="12.00">Upstream demo / benchmark output</text>
<text text-anchor="middle" x="893" y="-798.4" font-family="DejaVu Sans" font-size="12.00">Video frames + original audio → file</text>
</g>
<!-- pipeline&#45;&gt;mp4 -->
<g id="edge19" class="edge">
<title>pipeline&#45;&gt;mp4</title>
<path fill="none" stroke="#56718b" d="M893,-885.44C893,-870.25 893,-852.53 893,-837.98"/>
<polygon fill="#56718b" stroke="#56718b" points="895.63,-837.76 893,-830.26 890.38,-837.76 895.63,-837.76"/>
</g>
<!-- weights -->
<g id="node18" class="node">
<title>weights</title>
<polygon fill="#e8edfb" stroke="#667abb" points="1281,-1106.5 1278,-1110.5 1257,-1110.5 1254,-1106.5 933,-1106.5 933,-1036.5 1281,-1036.5 1281,-1106.5"/>
<text text-anchor="middle" x="1107" y="-1087.9" font-family="DejaVu Sans" font-size="12.00">WEIGHT STORE | models/</text>
<text text-anchor="middle" x="1107" y="-1074.9" font-family="DejaVu Sans" font-size="12.00">DiT, VAE and Wav2Vec2 are separate checkpoints</text>
<text text-anchor="middle" x="1107" y="-1061.9" font-family="DejaVu Sans" font-size="12.00">Runtime casting / compilation / optional TRT backends</text>
<text text-anchor="middle" x="1107" y="-1048.9" font-family="DejaVu Sans" font-size="12.00">Shared weights across calls; private per&#45;call state</text>
</g>
<!-- weights&#45;&gt;engine -->
<g id="edge21" class="edge">
<title>weights&#45;&gt;engine</title>
<path fill="none" stroke="#56718b" stroke-dasharray="1,5" d="M1107,-1036.47C1107,-1006.27 1107,-960.95 1107,-921.5 1107,-921.5 1107,-921.5 1107,-669 1107,-630.01 1077.26,-600.77 1043.92,-580.23"/>
<polygon fill="#56718b" stroke="#56718b" points="1045,-577.81 1037.21,-576.24 1042.31,-582.33 1045,-577.81"/>
<text text-anchor="middle" x="1131" y="-805.5" font-family="DejaVu Sans" font-size="10.00">load once</text>
</g>
<!-- weights&#45;&gt;pipeline -->
<g id="edge22" class="edge">
<title>weights&#45;&gt;pipeline</title>
<path fill="none" stroke="#56718b" stroke-dasharray="1,5" d="M1025.44,-1036.44C1011.49,-1029.3 997.48,-1021.26 985,-1012.5 964.35,-998.01 944.11,-978.72 927.9,-961.63"/>
<polygon fill="#56718b" stroke="#56718b" points="929.6,-959.61 922.56,-955.93 925.77,-963.2 929.6,-959.61"/>
<text text-anchor="middle" x="1036.5" y="-1004.5" font-family="DejaVu Sans" font-size="10.00">load selected variant</text>
</g>
<!-- proposal -->
<g id="node20" class="node">
<title>proposal</title>
<path fill="#fff2db" stroke="#c58c2f" stroke-dasharray="5,2" d="M993,-176C993,-176 703,-176 703,-176 697,-176 691,-170 691,-164 691,-164 691,-118 691,-118 691,-112 697,-106 703,-106 703,-106 993,-106 993,-106 999,-106 1005,-112 1005,-118 1005,-118 1005,-164 1005,-164 1005,-170 999,-176 993,-176"/>
<text text-anchor="middle" x="848" y="-157.4" font-family="DejaVu Sans" font-size="12.00">PROPOSED CUSTOM MOUTH REFINER</text>
<text text-anchor="middle" x="848" y="-144.4" font-family="DejaVu Sans" font-size="12.00">Independent architecture + new trained weights</text>
<text text-anchor="middle" x="848" y="-131.4" font-family="DejaVu Sans" font-size="12.00">Current/past mouth crops → local correction</text>
<text text-anchor="middle" x="848" y="-118.4" font-family="DejaVu Sans" font-size="12.00">Not implemented or trained</text>
</g>
<!-- experiments&#45;&gt;proposal -->
<g id="edge24" class="edge">
<title>experiments&#45;&gt;proposal</title>
<path fill="none" stroke="#56718b" stroke-dasharray="5,2" d="M848,-234.97C848,-219.31 848,-200.58 848,-184.04"/>
<polygon fill="#56718b" stroke="#56718b" points="850.63,-183.63 848,-176.13 845.38,-183.63 850.63,-183.63"/>
<text text-anchor="middle" x="934" y="-203" font-family="DejaVu Sans" font-size="10.00">proposed extension; see diagram 3</text>
</g>
<!-- proposal&#45;&gt;legend -->
<!-- tools&#45;&gt;legend -->
</g>
</svg>
